<?xml version="1.0" encoding="iso-8859-1"?>
<!-- Generator: Adobe Illustrator 19.0.0, SVG Export Plug-In . SVG Version: 6.00 Build 0)  -->
<svg version="1.1" id="Layer_1" xmlns="http://www.w3.org/2000/svg" xmlns:xlink="http://www.w3.org/1999/xlink" x="0px" y="0px"
	 viewBox="0 0 512 512" style="enable-background:new 0 0 512 512;" xml:space="preserve">
<rect x="211.215" y="10.199" style="fill:#3CC4DC;" width="89.569" height="70.823"/>
<g>
	<path style="fill:#D5E2E8;" d="M398.689,178.927c0-54.071-43.833-97.904-97.904-97.904h-89.571
		c-54.071,0-97.904,43.833-97.904,97.904v33.329h285.379v-33.329H398.689z"/>
	<rect x="113.313" y="376.82" style="fill:#D5E2E8;" width="285.384" height="124.981"/>
</g>
<rect x="113.313" y="212.256" style="fill:#3CC4DC;" width="285.384" height="164.564"/>
<polygon style="fill:#FF422D;" points="304.952,277.478 273.059,277.478 273.059,245.585 238.94,245.585 238.94,277.478 
	207.047,277.478 207.047,311.596 238.94,311.596 238.94,343.489 273.059,343.489 273.059,311.596 304.952,311.596 "/>
<path d="M103.111,501.801c0,5.633,4.567,10.199,10.199,10.199h285.379c5.632,0,10.199-4.566,10.199-10.199V178.927
	c0-56.168-43.061-102.461-97.903-107.618v-61.11C310.985,4.566,306.418,0,300.786,0h-89.571c-5.632,0-10.199,4.566-10.199,10.199
	v61.11c-54.842,5.157-97.903,51.45-97.903,107.618v322.874H103.111z M123.51,222.455h264.98v144.163H123.51V222.455z
	 M221.413,20.398h69.173v50.426h-69.173L221.413,20.398L221.413,20.398z M123.51,178.927c0-48.361,39.343-87.704,87.704-87.704
	h89.571c48.361,0,87.704,39.344,87.704,87.704v23.13H123.51V178.927z M388.489,491.602H123.51V387.017h264.98v104.585H388.489z"/>
<path d="M304.952,267.278h-21.695v-21.694c0-5.633-4.567-10.199-10.199-10.199H238.94c-5.632,0-10.199,4.566-10.199,10.199v21.694
	h-21.695c-5.632,0-10.199,4.566-10.199,10.199v34.118c0,5.633,4.567,10.199,10.199,10.199h21.695v21.694
	c0,5.633,4.567,10.199,10.199,10.199h34.117c5.632,0,10.199-4.566,10.199-10.199v-21.694h21.695c5.632,0,10.199-4.566,10.199-10.199
	v-34.118C315.151,271.844,310.585,267.278,304.952,267.278z M294.752,301.397h-21.695c-5.632,0-10.199,4.566-10.199,10.199v21.694
	H249.14v-21.694c0-5.633-4.567-10.199-10.199-10.199h-21.695v-13.72h21.695c5.632,0,10.199-4.566,10.199-10.199v-21.694h13.719
	v21.694c0,5.633,4.567,10.199,10.199,10.199h21.695V301.397z"/>
<path d="M233.086,170.811h-86.447c-5.632,0-10.199,4.566-10.199,10.199c0,5.633,4.567,10.199,10.199,10.199h86.447
	c5.632,0,10.199-4.566,10.199-10.199C243.285,175.377,238.719,170.811,233.086,170.811z"/>
<path d="M273.705,170.811h-8.333c-5.632,0-10.199,4.566-10.199,10.199c0,5.633,4.567,10.199,10.199,10.199h8.333
	c5.632,0,10.199-4.566,10.199-10.199C283.905,175.377,279.338,170.811,273.705,170.811z"/>
<g>
</g>
<g>
</g>
<g>
</g>
<g>
</g>
<g>
</g>
<g>
</g>
<g>
</g>
<g>
</g>
<g>
</g>
<g>
</g>
<g>
</g>
<g>
</g>
<g>
</g>
<g>
</g>
<g>
</g>
</svg>
