<?xml version="1.0" ?><svg width="64px" height="64px" viewBox="0 0 64 64" id="filled" xmlns="http://www.w3.org/2000/svg"><defs><style>.cls-1{fill:#81dee3;}.cls-1,.cls-2,.cls-3{stroke:#000;stroke-linecap:round;stroke-linejoin:round;stroke-width:2px;}.cls-2{fill:none;}.cls-3{fill:#fff;}</style></defs><title/><path class="cls-1" d="M37.062,15.1177,5.8645,34.8148A4,4,0,0,0,4,38.1971v6.1894a3,3,0,0,0,1.3359,2.4962L18.76,55.8321a6,6,0,0,0,6.5321.0806L58.602,34.875A3,3,0,0,0,60,32.3385v-6.733a3,3,0,0,0-1.3359-2.4962l-11.8049-7.87A9,9,0,0,0,37.062,15.1177Z"/><path class="cls-2" d="M11.5,40.2661l8.41,5.607a4.3389,4.3389,0,0,0,4.7237.0583L54.5,27.0688"/><circle class="cls-3" cx="15" cy="26" r="6"/><circle class="cls-3" cx="27" cy="11" r="4"/><circle class="cls-3" cx="14" cy="12" r="2"/></svg>