<?xml version="1.0" encoding="iso-8859-1"?>
<!-- Generator: Adobe Illustrator 19.0.0, SVG Export Plug-In . SVG Version: 6.00 Build 0)  -->
<svg version="1.1" id="Layer_1" xmlns="http://www.w3.org/2000/svg" xmlns:xlink="http://www.w3.org/1999/xlink" x="0px" y="0px"
	 viewBox="0 0 511.992 511.992" style="enable-background:new 0 0 511.992 511.992;" xml:space="preserve">
<path style="fill:#E6E9ED;" d="M11.25,96v319.995c0,17.67,79.483,31.998,191.403,31.998c111.936,0,191.403-14.328,191.403-31.998V96
	H11.25z"/>
<path style="fill:#48CFAD;" d="M202.653,64C90.733,64,0,78.328,0,96v63.999c0,17.672,90.733,32,202.653,32
	c111.936,0,202.669-14.328,202.669-32V96C405.322,78.329,314.589,64,202.653,64z"/>
<path style="fill:#37BC9B;" d="M405.322,96c0,17.671-90.733,32-202.669,32C90.733,128,0,113.672,0,96s90.733-32,202.653-32
	C314.589,64,405.322,78.329,405.322,96z"/>
<rect x="469.316" y="162.387" style="fill:#48CFAD;" width="21.328" height="215.32"/>
<path style="fill:#F5F7FA;" d="M42.656,212.443c-5.891,0-10.656,4.773-10.656,10.664v207.761c5.953,2,13.093,3.844,21.327,5.562
	V223.107C53.327,217.216,48.546,212.443,42.656,212.443z"/>
<g>
	<path style="fill:#37BC9B;" d="M42.656,117.335c0,5.891,4.78,10.664,10.671,10.664c5.219,0,9.547-3.742,10.484-8.695
		c-7.578-1.125-14.609-2.336-20.999-3.633C42.719,116.21,42.656,116.765,42.656,117.335z"/>
	<path style="fill:#37BC9B;" d="M85.327,123.335c0,5.891,4.781,10.664,10.672,10.664c5.594,0,10.187-4.32,10.624-9.812
		c-7.358-0.625-14.437-1.328-21.218-2.086C85.358,122.507,85.327,122.914,85.327,123.335z"/>
	<path style="fill:#37BC9B;" d="M127.998,126.664c0,5.898,4.766,10.672,10.656,10.672c5.828,0,10.547-4.664,10.656-10.461
		c-7.25-0.312-14.359-0.68-21.266-1.117C128.014,126.062,127.998,126.359,127.998,126.664z"/>
	<path style="fill:#37BC9B;" d="M170.684,127.601c-0.016,0.133-0.031,0.266-0.031,0.398c0,5.891,4.781,10.664,10.672,10.664
		s10.672-4.773,10.672-10.664c0-0.016,0-0.031,0-0.047C184.778,127.898,177.669,127.773,170.684,127.601z"/>
	<path style="fill:#37BC9B;" d="M213.325,127.953c0,0.016,0,0.031,0,0.047c0,5.891,4.781,10.664,10.671,10.664
		c5.891,0,10.656-4.773,10.656-10.664c0-0.133-0.016-0.266-0.016-0.398C227.652,127.773,220.543,127.898,213.325,127.953z"/>
	<path style="fill:#37BC9B;" d="M255.996,126.874c0.125,5.797,4.844,10.461,10.656,10.461c5.891,0,10.672-4.773,10.672-10.672
		c0-0.305-0.016-0.602-0.047-0.906C270.371,126.195,263.262,126.562,255.996,126.874z"/>
	<path style="fill:#37BC9B;" d="M298.699,124.187c0.438,5.492,5.016,9.812,10.624,9.812c5.891,0,10.672-4.773,10.672-10.664
		c0-0.422-0.031-0.828-0.078-1.234C313.136,122.859,306.058,123.562,298.699,124.187z"/>
	<path style="fill:#37BC9B;" d="M362.51,115.671c-6.406,1.297-13.422,2.508-21,3.633c0.922,4.953,5.266,8.695,10.484,8.695
		c5.891,0,10.656-4.773,10.656-10.664C362.65,116.765,362.603,116.21,362.51,115.671z"/>
</g>
<g>
	<path style="fill:#E6E9ED;" d="M447.993,117.335c0,17.672,14.327,53.327,31.999,53.327s32-35.655,32-53.327s-14.328-32-32-32
		S447.993,99.664,447.993,117.335z"/>
	<path style="fill:#E6E9ED;" d="M511.992,394.651c0-17.656-14.328-53.312-32-53.312s-31.999,35.656-31.999,53.312
		c0,17.688,14.327,31.998,31.999,31.998S511.992,412.339,511.992,394.651z"/>
</g>
<g>
</g>
<g>
</g>
<g>
</g>
<g>
</g>
<g>
</g>
<g>
</g>
<g>
</g>
<g>
</g>
<g>
</g>
<g>
</g>
<g>
</g>
<g>
</g>
<g>
</g>
<g>
</g>
<g>
</g>
</svg>
