<?xml version="1.0" encoding="iso-8859-1"?>
<!-- Generator: Adobe Illustrator 19.0.0, SVG Export Plug-In . SVG Version: 6.00 Build 0)  -->
<svg version="1.1" id="Layer_1" xmlns="http://www.w3.org/2000/svg" xmlns:xlink="http://www.w3.org/1999/xlink" x="0px" y="0px"
	 viewBox="0 0 512 512" style="enable-background:new 0 0 512 512;" xml:space="preserve">
<rect x="117.495" y="10.199" style="fill:#84B3D2;" width="277.01" height="491.602"/>
<rect x="151.968" y="46.916" style="fill:#F07057;" width="208.064" height="418.167"/>
<circle style="fill:#E8E8E8;" cx="300.876" cy="252.94" r="23.458"/>
<path d="M394.502,512H117.498c-5.633,0-10.199-4.566-10.199-10.199V10.199C107.299,4.566,111.865,0,117.498,0h277.004
	c5.632,0,10.199,4.566,10.199,10.199v491.602C404.701,507.434,400.135,512,394.502,512z M127.697,491.602h256.606V20.398H127.697
	V491.602z"/>
<path d="M360.032,475.283H151.968c-5.633,0-10.199-4.566-10.199-10.199V46.916c0-5.633,4.566-10.199,10.199-10.199h208.064
	c5.632,0,10.199,4.566,10.199,10.199v418.167C370.231,470.717,365.665,475.283,360.032,475.283z M162.167,454.884h187.665V57.116
	H162.167V454.884z"/>
<path d="M300.876,286.598c-18.558,0-33.657-15.099-33.657-33.657s15.099-33.657,33.657-33.657c18.559,0,33.657,15.099,33.657,33.657
	C334.534,271.499,319.436,286.598,300.876,286.598z M300.876,239.681c-7.311,0-13.259,5.948-13.259,13.259
	s5.948,13.259,13.259,13.259s13.259-5.948,13.259-13.259S308.187,239.681,300.876,239.681z"/>
<path d="M245.801,444.685h-8.159c-5.633,0-10.199-4.566-10.199-10.199c0-5.633,4.566-10.199,10.199-10.199h8.159
	c5.633,0,10.199,4.566,10.199,10.199C256,440.119,251.434,444.685,245.801,444.685z"/>
<path d="M326.375,444.685h-46.916c-5.632,0-10.199-4.566-10.199-10.199c0-5.633,4.567-10.199,10.199-10.199h46.916
	c5.632,0,10.199,4.566,10.199,10.199C336.574,440.119,332.008,444.685,326.375,444.685z"/>
<g>
</g>
<g>
</g>
<g>
</g>
<g>
</g>
<g>
</g>
<g>
</g>
<g>
</g>
<g>
</g>
<g>
</g>
<g>
</g>
<g>
</g>
<g>
</g>
<g>
</g>
<g>
</g>
<g>
</g>
</svg>
