<?xml version="1.0" encoding="iso-8859-1"?>
<!-- Generator: Adobe Illustrator 19.0.0, SVG Export Plug-In . SVG Version: 6.00 Build 0)  -->
<svg version="1.1" id="Layer_1" xmlns="http://www.w3.org/2000/svg" xmlns:xlink="http://www.w3.org/1999/xlink" x="0px" y="0px"
	 viewBox="0 0 512.001 512.001" style="enable-background:new 0 0 512.001 512.001;" xml:space="preserve">
<path style="fill:#ED2601;" d="M462.378,464.1H49.622c-23.061,0-41.756-18.694-41.756-41.756v-254.13
	c0-23.061,18.694-41.756,41.756-41.756h412.756c23.061,0,41.756,18.694,41.756,41.756v254.13
	C504.133,445.405,485.439,464.1,462.378,464.1z"/>
<path style="fill:#C91C00;" d="M462.378,126.459h-23.753c23.061,0,41.756,18.694,41.756,41.756v254.13
	c0,23.061-18.694,41.756-41.756,41.756h23.753c23.061,0,41.756-18.694,41.756-41.756v-254.13
	C504.133,145.153,485.439,126.459,462.378,126.459z"/>
<circle style="fill:#37CC8F;" cx="256.004" cy="292.15" r="113.144"/>
<path style="fill:#2AA86F;" d="M256,179.003c-4.011,0-7.973,0.212-11.877,0.62c56.906,5.937,101.269,54.049,101.269,112.526
	s-44.363,106.589-101.269,112.526c3.904,0.407,7.866,0.619,11.877,0.619c62.488,0,113.146-50.656,113.146-113.146
	C369.146,229.661,318.488,179.003,256,179.003z"/>
<polygon style="fill:#FE3200;" points="326.411,270.884 277.264,270.884 277.264,221.737 234.736,221.737 234.736,270.884 
	185.589,270.884 185.589,313.413 234.736,313.413 234.736,362.56 263.052,362.56 277.264,362.56 277.264,313.413 326.411,313.413 
	"/>
<path style="fill:#C91C00;" d="M256,421.202c-71.16,0-129.053-57.893-129.053-129.053S184.84,163.094,256,163.094
	s129.053,57.893,129.053,129.054C385.053,363.309,327.16,421.202,256,421.202z M256,178.828c-62.485,0-113.32,50.835-113.32,113.321
	c0,62.485,50.835,113.32,113.32,113.32s113.32-50.835,113.32-113.32S318.485,178.828,256,178.828z"/>
<path d="M462.378,118.592H349.222V76.983c0-20.373-16.575-36.948-36.948-36.948H199.727c-20.373,0-36.947,16.575-36.947,36.948
	v41.609H49.622C22.261,118.592,0,140.852,0,168.214v177.293c0,4.345,3.522,7.867,7.867,7.867s7.867-3.522,7.867-7.867V199.885
	h97.617c4.345,0,7.867-3.522,7.867-7.867s-3.522-7.867-7.867-7.867H15.733v-15.937c0-18.686,15.203-33.889,33.889-33.889h412.756
	c18.686,0,33.89,15.203,33.89,33.889v15.937h-53.65c-4.346,0-7.867,3.522-7.867,7.867s3.521,7.867,7.867,7.867h53.65v205.584
	h-97.617c-4.346,0-7.867,3.522-7.867,7.867c0,4.345,3.521,7.867,7.867,7.867h97.617v1.142c0,18.686-15.203,33.889-33.89,33.889
	H49.622c-18.686,0-33.889-15.203-33.889-33.889v-1.142h97.617c4.345,0,7.867-3.522,7.867-7.867c0-4.345-3.522-7.867-7.867-7.867
	H15.733v-34.147c0-4.345-3.522-7.867-7.867-7.867S0,366.977,0,371.322v51.023c0,27.362,22.261,49.622,49.622,49.622h412.756
	c27.363,0,49.623-22.261,49.623-49.622v-254.13C512,140.852,489.74,118.592,462.378,118.592z M178.512,76.983
	c0-11.697,9.517-21.215,21.214-21.215h112.548c11.697,0,21.215,9.517,21.215,21.215v41.609H178.512V76.983z"/>
<path d="M385.053,292.149c0-71.16-57.893-129.054-129.053-129.054s-129.053,57.893-129.053,129.054
	c0,71.16,57.893,129.053,129.053,129.053S385.053,363.309,385.053,292.149z M142.68,292.149c0-62.485,50.835-113.321,113.32-113.321
	s113.32,50.835,113.32,113.321c0,62.485-50.835,113.32-113.32,113.32C193.515,405.468,142.68,354.634,142.68,292.149z"/>
<path d="M398.65,199.885h18.006c4.346,0,7.867-3.522,7.867-7.867s-3.521-7.867-7.867-7.867H398.65c-4.346,0-7.867,3.522-7.867,7.867
	S394.304,199.885,398.65,199.885z"/>
<path d="M285.131,362.56v-41.28h41.279c4.346,0,7.867-3.522,7.867-7.867v-42.529c0-4.345-3.521-7.867-7.867-7.867h-41.279v-41.28
	c0-4.345-3.521-7.867-7.867-7.867h-42.529c-4.345,0-7.867,3.522-7.867,7.867v41.28h-41.28c-4.345,0-7.867,3.522-7.867,7.867v42.529
	c0,4.345,3.522,7.867,7.867,7.867h41.28v41.28c0,4.345,3.522,7.867,7.867,7.867h42.529
	C281.61,370.427,285.131,366.905,285.131,362.56z M269.398,313.413v41.28h-26.795v-41.28c0-4.345-3.522-7.867-7.867-7.867h-41.28
	v-26.795h41.28c4.345,0,7.867-3.522,7.867-7.867v-41.28h26.795v41.28c0,4.345,3.521,7.867,7.867,7.867h41.279v26.795h-41.279
	C272.92,305.546,269.398,309.068,269.398,313.413z"/>
<g>
</g>
<g>
</g>
<g>
</g>
<g>
</g>
<g>
</g>
<g>
</g>
<g>
</g>
<g>
</g>
<g>
</g>
<g>
</g>
<g>
</g>
<g>
</g>
<g>
</g>
<g>
</g>
<g>
</g>
</svg>
