<?xml version="1.0" encoding="iso-8859-1"?>
<!-- Generator: Adobe Illustrator 19.1.0, SVG Export Plug-In . SVG Version: 6.00 Build 0)  -->
<svg version="1.1" id="Capa_1" xmlns="http://www.w3.org/2000/svg" xmlns:xlink="http://www.w3.org/1999/xlink" x="0px" y="0px"
	 viewBox="0 0 269.704 269.704" style="enable-background:new 0 0 269.704 269.704;" xml:space="preserve">
<g>
	<path style="fill:#FFFFFF;" d="M24.402,158.435c0-10.713,8.366-23.415,31.945-23.958c31.84-0.733,49.902-6.837,55.22-18.66
		c3.156-7.02,1.41-15.002-4.918-22.477c-1.84-2.173-4.193-4.291-6.686-6.535c-9.377-8.439-15.791-15.197-12.894-25.333
		c0.838-2.931,3.062-10.715,20.707-6.233c10.869,2.761,23.273,4.239,35.923,4.304c0.082,0.003,1.025,0.003,1.108,0
		c12.649-0.064,25.054-1.543,35.922-4.304c4.488-1.14,7.975-1.482,10.698-1.316c-1.415-3.393-5.418-8.156-20.1-4.43
		c-10.868,2.761-23.273,4.239-35.922,4.304c-0.083,0.003-1.026,0.003-1.108,0c-12.649-0.064-25.054-1.543-35.923-4.304
		c-17.646-4.481-19.869,3.303-20.707,6.233c-2.897,10.136,3.517,16.894,12.894,25.333c2.492,2.244,4.846,4.362,6.686,6.535
		c6.328,7.475,8.074,15.457,4.918,22.477c-5.317,11.823-23.38,17.927-55.22,18.66C23.366,129.274,15,141.976,15,152.689
		c0,15.808,9.127,23.054,17.604,26.384C27.916,174.744,24.402,168.237,24.402,158.435z"/>
	<path style="fill:#FFFFFF;" d="M247.959,137.265c-5.014-4.771-13.1-8.256-25.2-8.534c-18.063-0.416-31.688-2.562-41.071-6.499
		c8.368,7.634,25.011,11.658,50.474,12.245C238.479,134.623,243.693,135.647,247.959,137.265z"/>
	<path style="fill:none;" d="M134.852,81.277c-3.351,0-6.076,2.726-6.076,6.075c0,3.35,2.726,6.075,6.076,6.075
		c3.351,0,6.076-2.726,6.076-6.075C140.928,84.003,138.202,81.277,134.852,81.277z"/>
	<polygon style="fill:#FFA6BB;" points="151.266,196.905 156.886,210.037 162.507,196.905 	"/>
	<polygon style="fill:#FFA6BB;" points="68.747,210.037 74.367,196.905 63.127,196.905 	"/>
	<polygon style="fill:#FFA6BB;" points="206.577,196.905 195.335,196.905 200.956,210.037 	"/>
	<polygon style="fill:#FFA6BB;" points="107.196,196.905 112.816,210.036 118.437,196.905 	"/>
	<path style="fill:#FFA6BB;" d="M247.957,137.264c-4.265-1.617-9.48-2.642-15.796-2.787c-25.463-0.587-42.105-4.611-50.474-12.245
		l-0.001-0.001c-7.155-3.002-11.847-7.045-14.148-12.16c-3.156-7.02-1.41-15.002,4.919-22.478c1.839-2.172,4.192-4.29,6.685-6.534
		c9.377-8.439,15.791-15.197,12.894-25.333c-0.141-0.491-0.323-1.12-0.608-1.804c-2.723-0.166-6.209,0.177-10.697,1.316
		c-10.868,2.761-23.273,4.239-35.922,4.304c-0.083,0.003-1.026,0.003-1.108,0c-12.649-0.064-25.054-1.543-35.923-4.304
		c-17.646-4.481-19.869,3.303-20.707,6.233c-2.897,10.136,3.517,16.894,12.894,25.333c2.492,2.244,4.846,4.362,6.686,6.535
		c6.328,7.475,8.074,15.457,4.918,22.477c-5.317,11.823-23.38,17.927-55.22,18.66c-23.579,0.543-31.945,13.245-31.945,23.958
		c0,9.802,3.514,16.309,8.201,20.638c7.013,2.754,13.582,2.832,14.169,2.832h176.159c0.059-0.001,8.639-0.109,16.838-4.063
		c10.05-4.846,14.934-13.073,14.934-25.152C254.704,147.473,252.713,141.791,247.957,137.264z M134.852,108.427
		c-11.621,0-21.076-9.454-21.076-21.075s9.455-21.075,21.076-21.075c11.621,0,21.076,9.454,21.076,21.075
		S146.473,108.427,134.852,108.427z"/>
	<path style="fill:#7F3960;" d="M134.852,66.277c-11.621,0-21.076,9.454-21.076,21.075s9.455,21.075,21.076,21.075
		c11.621,0,21.076-9.454,21.076-21.075S146.473,66.277,134.852,66.277z M134.852,93.427c-3.351,0-6.076-2.726-6.076-6.075
		c0-3.35,2.726-6.075,6.076-6.075c3.351,0,6.076,2.726,6.076,6.075C140.928,90.702,138.202,93.427,134.852,93.427z"/>
	<polygon style="fill:none;" points="68.747,210.037 74.367,196.905 63.127,196.905 	"/>
	<polygon style="fill:none;" points="112.816,210.036 118.437,196.905 107.196,196.905 	"/>
	<polygon style="fill:none;" points="156.886,210.037 162.507,196.905 151.266,196.905 	"/>
	<polygon style="fill:none;" points="200.956,210.037 206.577,196.905 195.335,196.905 	"/>
	<path style="fill:#7F3960;" d="M223.105,113.735c-36.8-0.848-41.473-8.9-41.885-9.815c-0.943-2.098,1.817-5.607,2.686-6.634
		c1.182-1.396,3.168-3.184,5.271-5.077c8.594-7.734,22.976-20.68,17.28-40.605c-2.123-7.431-10.158-23.924-38.822-16.649
		c-9.841,2.5-21.17,3.828-32.783,3.85c-11.614-0.022-22.943-1.35-32.785-3.85c-28.665-7.281-36.698,9.219-38.821,16.649
		c-5.695,19.926,8.687,32.871,17.28,40.605c2.104,1.894,4.09,3.682,5.272,5.078c0.868,1.025,3.629,4.535,2.686,6.633
		c-0.412,0.915-5.085,8.968-41.885,9.815C14.583,114.472,0,134.444,0,152.689c0,22.911,13.029,33.811,23.96,38.921
		c11.199,5.234,22.344,5.295,22.812,5.295h0.039l15.026,35.108c1.218,2.846,3.986,4.551,6.898,4.551
		c0.984,0,1.985-0.195,2.947-0.607c1.591-0.681,2.911-1.941,3.599-3.256c0.541-1.035,10.99-25.466,15.404-35.796h0.194
		l15.026,35.108c0.018,0.044,1.453,3.076,3.973,3.943c0.99,0.341,1.963,0.607,2.947,0.607c2.911,0,5.681-1.705,6.898-4.551
		l15.026-35.108h0.199l15.026,35.108c1.218,2.846,3.986,4.551,6.898,4.551c0.984,0,1.998-0.167,2.947-0.607
		c2.678-1.242,3.921-3.823,3.973-3.943l15.026-35.108h0.198l15.026,35.108c1.218,2.846,3.986,4.551,6.898,4.551
		c0.984,0,1.969-0.237,2.947-0.607c2.396-0.906,3.459-2.68,3.973-3.943l15.026-35.108h0.04c0.469,0,11.613-0.061,22.812-5.295
		c10.931-5.109,23.96-16.01,23.96-38.921C269.704,134.444,255.121,114.472,223.105,113.735z M15,152.689
		c0-10.713,8.366-23.415,31.945-23.958c31.84-0.733,49.902-6.837,55.22-18.66c3.156-7.02,1.41-15.002-4.918-22.477
		c-1.84-2.173-4.193-4.291-6.686-6.535c-9.377-8.439-15.791-15.197-12.894-25.333c0.838-2.931,3.062-10.715,20.707-6.233
		c10.869,2.761,23.273,4.239,35.923,4.304c0.082,0.003,1.025,0.003,1.108,0c12.649-0.064,25.054-1.543,35.922-4.304
		c14.682-3.726,18.686,1.037,20.1,4.43c0.285,0.684,0.468,1.312,0.608,1.804c2.897,10.136-3.517,16.894-12.894,25.333
		c-2.492,2.244-4.846,4.362-6.685,6.534c-6.329,7.476-8.075,15.458-4.919,22.478c2.301,5.115,6.992,9.158,14.148,12.16
		c9.384,3.938,23.008,6.084,41.072,6.5c12.101,0.278,20.186,3.763,25.198,8.533c4.756,4.526,6.747,10.209,6.747,15.425
		c0,12.079-4.885,20.307-14.934,25.152c-8.199,3.954-16.779,4.062-16.838,4.063H46.772c-0.587,0-7.156-0.078-14.169-2.832
		C24.126,175.743,15,168.497,15,152.689z M68.747,210.037l-5.62-13.132h11.24L68.747,210.037z M112.816,210.036l-5.62-13.131h11.24
		L112.816,210.036z M156.886,210.037l-5.62-13.132h11.241L156.886,210.037z M200.956,210.037l-5.621-13.132h11.242L200.956,210.037z
		"/>
</g>
<g>
</g>
<g>
</g>
<g>
</g>
<g>
</g>
<g>
</g>
<g>
</g>
<g>
</g>
<g>
</g>
<g>
</g>
<g>
</g>
<g>
</g>
<g>
</g>
<g>
</g>
<g>
</g>
<g>
</g>
</svg>
