<?xml version="1.0" encoding="iso-8859-1"?>
<!-- Generator: Adobe Illustrator 19.0.0, SVG Export Plug-In . SVG Version: 6.00 Build 0)  -->
<svg version="1.1" id="Layer_1" xmlns="http://www.w3.org/2000/svg" xmlns:xlink="http://www.w3.org/1999/xlink" x="0px" y="0px"
	 viewBox="0 0 512 512" style="enable-background:new 0 0 512 512;" xml:space="preserve">
<g transform="translate(1 1)">
	<path style="fill:#00AD55;" d="M451.267,152.6h-153.6v-8.533c0-23.893,18.773-42.667,42.667-42.667H408.6
		c23.893,0,42.667,18.773,42.667,42.667V152.6z"/>
	<g>
		<path style="fill:#00DA6C;" d="M425.667,152.6h-128v-8.533c0-23.893,18.773-42.667,42.667-42.667H383
			c23.893,0,42.667,18.773,42.667,42.667V152.6z"/>
		<polygon style="fill:#00DA6C;" points="144.067,152.6 58.733,152.6 75.8,118.467 127,118.467 		"/>
	</g>
	<path style="fill:#FFA800;" d="M476.867,408.6H263.533c-14.507,0-25.6-11.093-25.6-25.6V178.2c0-14.507,11.093-25.6,25.6-25.6
		h213.333c14.507,0,25.6,11.093,25.6,25.6V383C502.467,397.507,491.373,408.6,476.867,408.6"/>
	<path style="fill:#FFFFFF;" d="M246.467,408.6H33.133c-14.507,0-25.6-11.093-25.6-25.6V178.2c0-14.507,11.093-25.6,25.6-25.6
		h213.333c14.507,0,25.6,11.093,25.6,25.6V383C272.067,397.507,260.973,408.6,246.467,408.6"/>
	<path style="fill:#FFE100;" d="M451.267,408.6H58.733c-14.507,0-25.6-11.093-25.6-25.6V178.2c0-14.507,11.093-25.6,25.6-25.6
		h392.533c14.507,0,25.6,11.093,25.6,25.6V383C476.867,397.507,465.773,408.6,451.267,408.6"/>
	<path style="fill:#E4667F;" d="M348.867,280.6c0,52.053-41.813,93.867-93.867,93.867s-93.867-41.813-93.867-93.867
		s41.813-93.867,93.867-93.867S348.867,228.547,348.867,280.6"/>
	<path style="fill:#00AD55;" d="M314.733,280.6c0,33.28-26.453,59.733-59.733,59.733s-59.733-26.453-59.733-59.733
		S221.72,220.867,255,220.867S314.733,247.32,314.733,280.6"/>
	<path style="fill:#00DA6C;" d="M289.133,280.6c0,33.28-21.333,59.733-46.933,59.733s-46.933-26.453-46.933-59.733
		s21.333-59.733,46.933-59.733S289.133,247.32,289.133,280.6"/>
	<path style="fill:#E4667F;" d="M263.533,297.667h-17.067c-5.12,0-8.533-3.413-8.533-8.533v-17.067c0-5.12,3.413-8.533,8.533-8.533
		h17.067c5.12,0,8.533,3.413,8.533,8.533v17.067C272.067,294.253,268.653,297.667,263.533,297.667"/>
	<path d="M476.867,417.133H33.133C14.36,417.133-1,401.773-1,383V178.2c0-18.773,15.36-34.133,34.133-34.133h443.733
		c18.773,0,34.133,15.36,34.133,34.133V383C511,401.773,495.64,417.133,476.867,417.133z M33.133,161.133
		c-9.387,0-17.067,7.68-17.067,17.067V383c0,9.387,7.68,17.067,17.067,17.067h443.733c9.387,0,17.067-7.68,17.067-17.067V178.2
		c0-9.387-7.68-17.067-17.067-17.067H33.133z"/>
	<path d="M255,383c-56.32,0-102.4-46.08-102.4-102.4S198.68,178.2,255,178.2s102.4,46.08,102.4,102.4S311.32,383,255,383z
		 M255,195.267c-46.933,0-85.333,38.4-85.333,85.333s38.4,85.333,85.333,85.333s85.333-38.4,85.333-85.333
		S301.933,195.267,255,195.267z"/>
	<path d="M502.467,212.333H308.76c-1.707,0-3.413-0.853-5.12-1.707c-14.507-10.24-30.72-15.36-48.64-15.36s-34.133,5.12-48.64,15.36
		c-1.707,0.853-3.413,1.707-5.12,1.707H7.533C2.413,212.333-1,208.92-1,203.8v-25.6c0-18.773,15.36-34.133,34.133-34.133h443.733
		c18.773,0,34.133,15.36,34.133,34.133v25.6C511,208.92,507.587,212.333,502.467,212.333z M311.32,195.267h182.613V178.2
		c0-9.387-7.68-17.067-17.067-17.067H33.133c-9.387,0-17.067,7.68-17.067,17.067v17.067H198.68
		C215.747,184.173,235.373,178.2,255,178.2C275.48,178.2,294.253,184.173,311.32,195.267z"/>
	<path d="M476.867,417.133H33.133C14.36,417.133-1,401.773-1,383v-25.6c0-5.12,3.413-8.533,8.533-8.533H201.24
		c1.707,0,3.413,0.853,5.12,1.707c14.507,10.24,30.72,15.36,48.64,15.36s34.133-5.12,48.64-15.36
		c1.707-0.853,3.413-1.707,5.12-1.707h193.707c5.12,0,8.533,3.413,8.533,8.533V383C511,401.773,495.64,417.133,476.867,417.133z
		 M16.067,365.933V383c0,9.387,7.68,17.067,17.067,17.067h443.733c9.387,0,17.067-7.68,17.067-17.067v-17.067H311.32
		C294.253,377.027,274.627,383,255,383c-20.48,0-39.253-5.973-56.32-17.067H16.067z"/>
	<path d="M255,348.867c-37.547,0-68.267-30.72-68.267-68.267s30.72-68.267,68.267-68.267s68.267,30.72,68.267,68.267
		S292.547,348.867,255,348.867z M255,229.4c-28.16,0-51.2,23.04-51.2,51.2s23.04,51.2,51.2,51.2s51.2-23.04,51.2-51.2
		S283.16,229.4,255,229.4z"/>
	<path d="M144.067,161.133H58.733c-2.56,0-5.973-1.707-7.68-4.267c-0.853-2.56-0.853-5.12,0-7.68l17.067-34.133
		c1.707-3.413,4.267-5.12,7.68-5.12H127c3.413,0,5.973,1.707,7.68,5.12l17.067,34.133c1.707,2.56,0.853,5.973,0,8.533
		C150.04,159.427,146.627,161.133,144.067,161.133z M72.387,144.067h58.027L121.88,127H80.92L72.387,144.067z"/>
	<path d="M451.267,161.133h-153.6c-5.12,0-8.533-3.413-8.533-8.533v-8.533c0-28.16,23.04-51.2,51.2-51.2H408.6
		c28.16,0,51.2,23.04,51.2,51.2v8.533C459.8,157.72,456.387,161.133,451.267,161.133z M306.2,144.067h136.533
		c0-18.773-15.36-34.133-34.133-34.133h-68.267C321.56,109.933,306.2,125.293,306.2,144.067z"/>
	<path d="M161.133,212.333h-51.2c-5.12,0-8.533-3.413-8.533-8.533v-51.2c0-5.12,3.413-8.533,8.533-8.533h51.2
		c5.12,0,8.533,3.413,8.533,8.533v51.2C169.667,208.92,166.253,212.333,161.133,212.333z M118.467,195.267H152.6v-34.133h-34.133
		V195.267z"/>
	<path d="M186.733,161.133c-5.12,0-8.533-3.413-8.533-8.533v-17.067c0-5.12,3.413-8.533,8.533-8.533c5.12,0,8.533,3.413,8.533,8.533
		V152.6C195.267,157.72,191.853,161.133,186.733,161.133z"/>
	<path d="M263.533,306.2h-17.067c-9.387,0-17.067-7.68-17.067-17.067v-17.067c0-9.387,7.68-17.067,17.067-17.067h17.067
		c9.387,0,17.067,7.68,17.067,17.067v17.067C280.6,298.52,272.92,306.2,263.533,306.2z M263.533,289.133v8.533V289.133
		L263.533,289.133z M246.467,272.067v17.067h17.067v-17.067H246.467z"/>
	<path d="M408.6,237.933c0,5.12-3.413,8.533-8.533,8.533s-8.533-3.413-8.533-8.533c0-5.12,3.413-8.533,8.533-8.533
		S408.6,232.813,408.6,237.933"/>
	<path d="M442.733,237.933c0,5.12-3.413,8.533-8.533,8.533c-5.12,0-8.533-3.413-8.533-8.533c0-5.12,3.413-8.533,8.533-8.533
		C439.32,229.4,442.733,232.813,442.733,237.933"/>
	<path d="M476.867,237.933c0,5.12-3.413,8.533-8.533,8.533c-5.12,0-8.533-3.413-8.533-8.533c0-5.12,3.413-8.533,8.533-8.533
		C473.453,229.4,476.867,232.813,476.867,237.933"/>
</g>
<g>
</g>
<g>
</g>
<g>
</g>
<g>
</g>
<g>
</g>
<g>
</g>
<g>
</g>
<g>
</g>
<g>
</g>
<g>
</g>
<g>
</g>
<g>
</g>
<g>
</g>
<g>
</g>
<g>
</g>
</svg>
