<?xml version="1.0" encoding="iso-8859-1"?>
<!-- Generator: Adobe Illustrator 19.0.0, SVG Export Plug-In . SVG Version: 6.00 Build 0)  -->
<svg version="1.1" id="Layer_1" xmlns="http://www.w3.org/2000/svg" xmlns:xlink="http://www.w3.org/1999/xlink" x="0px" y="0px"
	 viewBox="0 0 332.55 332.55" style="enable-background:new 0 0 332.55 332.55;" xml:space="preserve">
<g>
	<path style="fill:#28D2E4;" d="M252.31,7.5L7.5,252.31l72.74,72.74L325.05,80.24L252.31,7.5z M260.888,92.074
		c-6.588-6.588-6.588-17.268,0-23.856c6.588-6.588,17.268-6.588,23.856,0c6.587,6.587,6.587,17.268,0,23.856
		C278.156,98.661,267.475,98.661,260.888,92.074z"/>
	<g>
		<path style="fill:#22313F;" d="M255.584,97.377C255.585,97.377,255.585,97.377,255.584,97.377c9.501,9.501,24.962,9.5,34.462,0
			c9.522-9.52,9.527-24.938,0.001-34.462c-9.503-9.501-24.961-9.501-34.462,0C246.06,72.437,246.059,87.852,255.584,97.377z
			 M266.192,73.521c3.661-3.661,9.585-3.662,13.249,0c3.659,3.657,3.663,9.587-0.001,13.249c-3.652,3.653-9.597,3.652-13.249,0
			h0.001C262.529,83.11,262.528,77.183,266.192,73.521z"/>
		<path style="fill:#22313F;" d="M330.353,74.936l-72.739-72.74c-2.928-2.927-7.678-2.929-10.607,0
			C216.652,32.551,25.51,223.693,2.197,247.007c-2.929,2.929-2.929,7.678,0,10.607l72.739,72.74c2.928,2.927,7.678,2.929,10.608,0
			l244.809-244.81C333.281,82.614,333.281,77.865,330.353,74.936z M80.239,314.443L18.107,252.31l51.631-51.631l31.066,31.066
			c2.93,2.929,7.678,2.929,10.607,0s2.929-7.678,0-10.606l-31.067-31.067l13.811-13.811l20.152,20.152
			c2.93,2.929,7.678,2.929,10.607,0s2.929-7.678,0-10.606l-20.153-20.152l13.812-13.812l20.152,20.152
			c2.93,2.929,7.678,2.929,10.607,0s2.929-7.678,0-10.606l-20.153-20.153l13.811-13.811l20.152,20.152
			c2.93,2.929,7.678,2.929,10.607,0s2.929-7.678,0-10.607l-20.153-20.153l13.811-13.811l31.066,31.066
			c2.93,2.929,7.678,2.929,10.607,0s2.929-7.678,0-10.607l-31.067-31.066l74.292-74.293l62.133,62.133L80.239,314.443z"/>
	</g>
</g>
<g>
</g>
<g>
</g>
<g>
</g>
<g>
</g>
<g>
</g>
<g>
</g>
<g>
</g>
<g>
</g>
<g>
</g>
<g>
</g>
<g>
</g>
<g>
</g>
<g>
</g>
<g>
</g>
<g>
</g>
</svg>
