<?xml version="1.0" encoding="iso-8859-1"?>
<!-- Generator: Adobe Illustrator 19.0.0, SVG Export Plug-In . SVG Version: 6.00 Build 0)  -->
<svg version="1.1" id="Layer_1" xmlns="http://www.w3.org/2000/svg" xmlns:xlink="http://www.w3.org/1999/xlink" x="0px" y="0px"
	 viewBox="0 0 512 512" style="enable-background:new 0 0 512 512;" xml:space="preserve">
<path style="fill:#FFD37D;" d="M256,0c-16.752,0-30.332,13.58-30.332,30.332s0,105.555,0,105.555h60.663c0,0,0-88.803,0-105.555
	S272.752,0,256,0z"/>
<path style="fill:#83C7C3;" d="M322.73,190.483L256,166.218l-66.73,24.265c-39.89,23.076-66.73,66.202-66.73,115.6
	c0,67.006,0,193.784,0,193.784c0,6.673,5.46,12.133,12.133,12.133h242.654c6.673,0,12.133-5.46,12.133-12.133
	c0,0,0-126.776,0-193.784C389.46,256.686,362.62,213.56,322.73,190.483z"/>
<path style="fill:#C6F2EA;" d="M171.071,291.913v147.291c0,13.346,10.919,24.265,24.265,24.265h121.327
	c13.346,0,24.265-10.919,24.265-24.265V291.913H171.071z"/>
<polygon style="fill:#9AE1D3;" points="276.626,166.218 235.374,166.218 235.374,291.913 256,316.178 276.626,291.913 "/>
<path style="fill:#FFFFFF;" d="M276.626,402.806h-8.493v-28.239c5.167-3.798,8.493-9.956,8.493-16.929v-65.725h-41.251v65.725
	c0,6.973,3.326,13.131,8.493,16.929v28.239h-8.493c-6.701,0-12.133,5.433-12.133,12.133c0,6.7,5.432,12.133,12.133,12.133h41.251
	c6.7,0,12.133-5.433,12.133-12.133C288.758,408.239,283.325,402.806,276.626,402.806z"/>
<rect x="189.27" y="111.621" style="fill:#3D7A94;" width="133.46" height="78.863"/>
<g>
</g>
<g>
</g>
<g>
</g>
<g>
</g>
<g>
</g>
<g>
</g>
<g>
</g>
<g>
</g>
<g>
</g>
<g>
</g>
<g>
</g>
<g>
</g>
<g>
</g>
<g>
</g>
<g>
</g>
</svg>
