<?xml version="1.0" encoding="iso-8859-1"?>
<!-- Generator: Adobe Illustrator 19.0.0, SVG Export Plug-In . SVG Version: 6.00 Build 0)  -->
<svg version="1.1" id="Layer_1" xmlns="http://www.w3.org/2000/svg" xmlns:xlink="http://www.w3.org/1999/xlink" x="0px" y="0px"
	 viewBox="0 0 456.065 456.065" style="enable-background:new 0 0 456.065 456.065;" xml:space="preserve">
<g transform="translate(0 -1020.36)" shape-rendering="auto" image-rendering="auto" color-rendering="auto" color-interpolation="sRGB">
	<path style="fill:#484666;" d="M124.527,1020.51c-19.977,1.184-37.265,14.624-43.121,33.578
		c-5.856,18.953,0.894,39.625,16.78,51.682c0.529,0.4,1.106,0.734,1.718,0.992c-16.713,38.77-5.16,82.033,28.404,111.842
		c-7.929,8.449-14.82,17.811-20.311,28.006c-26.412,0-47.964,21.438-47.964,47.598c0,21.863,15.134,40.164,35.497,45.646
		c2.01,8.758,4.834,17.342,8.562,25.531c-6.625,8.617-10.243,19.779-11.686,31.039c-2.309,18.018,0.472,37.264,7.312,52.053
		c8.177,17.688,28.445,26.184,45.964,27.729c17.482,1.535,36.118-5.023,48.183-17.889c4.204-4.479,8.038-9.898,11.124-15.783
		c15.287,2.623,30.857,2.666,46.152,0c3.08,5.857,6.907,11.258,11.093,15.721c12.065,12.863,30.701,19.43,48.183,17.887
		c17.52-1.535,37.756-10.039,45.933-27.729c6.836-14.787,9.652-34.035,7.343-52.051c-1.452-11.332-5.168-22.557-11.905-31.195
		c3.721-8.164,6.64-16.646,8.655-25.377c20.394-5.48,35.59-23.779,35.59-45.648c0-26.158-21.646-47.596-48.058-47.596
		c-5.49-10.182-12.336-19.553-20.248-28.006c33.401-29.67,45.089-72.723,28.747-111.348c1.249-0.219,2.427-0.73,3.437-1.488
		c15.886-12.057,22.511-32.729,16.655-51.682c-5.856-18.953-23.019-32.392-42.996-33.577c-18.341-1.088-35.491,8.458-44.465,24.045
		c-18.657-7.627-39.453-11.887-61.119-11.883c-20.986,0.003-41.213,3.976-59.401,11.171c-9.083-15.168-25.995-24.406-44.058-23.333
		L124.527,1020.51z"/>
	<g>
		<path style="fill:#E0A45C;" d="M125.464,1036.417c11.55-0.688,22.085,4.982,28.31,14.298c-9.708,5.162-18.454,11.48-26.31,18.568
			c-0.455-2.719,0.541-5.51,2.844-7.365c3.539-2.619,4.264-7.584,1.619-11.09c-1.776-2.354-4.72-3.539-7.65-3.084
			c-1.473,0.209-2.858,0.82-4,1.766c-9.075,7.309-11.591,20.244-5.781,30.297c0.351,0.609,0.781,1.172,1.281,1.67
			c-2.996,3.617-5.726,7.383-8.218,11.326c-10.353-8.098-14.651-21.514-10.78-34.041
			C100.696,1046.085,112.101,1037.213,125.464,1036.417L125.464,1036.417z"/>
		<path style="fill:#E0A45C;" d="M332.632,1036.417c13.363,0.8,24.768,9.666,28.685,22.345c3.917,12.678-0.467,26.316-11.093,34.381
			c-0.333,0.242-0.646,0.51-0.937,0.801c-2.417-3.941-5.02-7.742-7.937-11.359c0.908-0.76,1.634-1.711,2.125-2.783
			c5.81-10.053,3.419-22.988-5.656-30.297c-1.176-0.967-2.607-1.58-4.125-1.768c-4.377-0.594-8.412,2.439-9.012,6.773
			c-0.393,2.842,0.795,5.672,3.106,7.4c2.669,2.15,3.482,5.545,2.406,8.633c-7.831-7.295-16.577-13.826-26.341-19.154
			c6.143-9.736,16.945-15.679,28.779-14.979V1036.417z"/>
	</g>
	<path style="fill:#FABD6B;" d="M227.986,1048.578c49.837-0.008,94.129,24.67,111.833,60.596
		c17.705,35.924,6.79,76.1-28.935,103.146c-4.929,3.701-3.937,11.307,1.781,13.648h0.032c7.19,7.104,13.277,15.178,18.436,23.828
		c-3.987,1.504-7.722,3.461-11.124,5.91c-7.564-18.996-26.056-32.617-47.964-32.617c-20.708,0-35.859,12.908-44.058,30.049
		c-8.21-17.115-23.243-30.049-43.933-30.049c-0.281-0.016-0.563-0.016-0.844,0c-3.889,0.416-3.834,0.16-11.429,2.113
		c-16.273,4.258-27.812,17.48-35.129,31.061c-3.584-2.67-7.499-4.832-11.749-6.438c4.944-8.314,10.826-16.012,17.655-22.898
		c7.076-1.439,8.754-10.697,2.625-14.484c-35.738-27.033-46.621-67.34-28.935-103.27c17.686-35.93,61.903-60.588,111.74-60.594
		L227.986,1048.578z"/>
	<g>
		<path style="fill:#484666;" d="M180.021,1088.223c-13.159,0-23.967,10.703-23.967,23.736s10.807,23.768,23.967,23.768
			c13.159,0,23.998-10.734,23.998-23.768C204.019,1098.928,193.181,1088.223,180.021,1088.223z"/>
		<path style="fill:#484666;" d="M284.074,1088.223c-13.159,0-24.092,10.703-24.092,23.736s10.932,23.768,24.092,23.768
			s23.966-10.734,23.966-23.768C308.041,1098.928,297.234,1088.223,284.074,1088.223z"/>
	</g>
	<g>
		<path style="fill:#FFFFFF;" d="M180.021,1104.004c4.513,0,8.031,3.486,8.031,7.953c0,4.469-3.517,7.953-8.031,7.953
			c-4.513,0-8.031-3.484-8.031-7.953C171.991,1107.49,175.508,1104.004,180.021,1104.004z"/>
		<path style="fill:#FFFFFF;" d="M284.074,1104.004c4.513,0,7.906,3.486,7.906,7.953c0,4.469-3.392,7.953-7.906,7.953
			c-4.513,0-8.031-3.484-8.031-7.953C276.044,1107.49,279.561,1104.004,284.074,1104.004z"/>
	</g>
	<g>
		<path style="fill:#484666;" d="M228.173,1130.959c-14.62,0-29.229,3.678-41.871,11.078
			c-25.283,14.803-36.801,42.729-26.466,67.713c3.574,10.756,19.82,4.193,14.78-5.969c-7.27-17.576,0.027-36.461,19.842-48.061
			c19.815-11.602,47.674-11.656,67.431,0c19.757,11.654,26.818,30.623,19.467,48.184c-4.008,9.721,10.637,15.76,14.78,6.096
			c10.444-24.949-0.9-52.957-26.123-67.836C256.514,1134.576,242.63,1130.857,228.173,1130.959z"/>
		<path style="fill:#484666;" d="M227.986,1158.75c-7.715,0-14.757,1.455-20.561,4.33c-5.803,2.869-11.436,8-11.436,15.568
			c0,7.566,5.633,12.57,11.436,15.441c3.718,1.838,8.073,2.863,12.655,3.527v8.328c-4.309-0.961-8.448-2.641-12.061-5.199
			c-8.748-6.662-18.495,6.816-9.312,12.875c17.551,12.447,41.766,12.291,59.151-0.367c6.411-4.715,2.655-14.801-5.312-14.266
			c-1.495,0.16-2.924,0.656-4.125,1.553c-3.691,2.689-7.958,4.42-12.405,5.414v-8.324c4.587-0.672,8.927-1.695,12.624-3.527
			c5.803-2.873,11.468-7.873,11.468-15.441s-5.664-12.695-11.468-15.566c-6.991-3.391-14.152-4.244-20.654-4.342L227.986,1158.75z"
			/>
	</g>
	<path style="fill:#DBAE96;" d="M227.986,1174.658c5.555,0,10.575,1.137,13.467,2.568c1.221,0.607,1.653,1.072,2,1.393
		c-0.348,0.305-0.783,0.703-2,1.297c-2.893,1.424-7.912,2.695-13.467,2.695c-5.555,0-10.45-1.264-13.343-2.695
		c-1.239-0.607-1.688-1.023-2.031-1.328c0.345-0.305,0.798-0.752,2.031-1.359c4.591-2.199,9.08-2.324,13.343-2.568V1174.658z"/>
	<path style="fill:#D87070;" d="M184.052,1238.994c20.798,0,36.028,12.154,36.028,31.689h15.936
		c0-19.535,15.229-31.689,36.028-31.689c18.279,0,32.779,13.283,35.184,30.482c-4.05,6.539-6.49,14.07-6.937,22.158
		c-0.074,0.816-0.278,1.611-0.281,2.443c0,0,0,0,0,0.16c-0.002,0.305-0.005,0.623,0,0.928c-0.714,1.313-1.429,2.809-2,3.742
		c-9.314,15.223-28.466,36.807-44.996,54.156c-13.382,14.049-20.698,20.967-24.685,24.789c-6.803-6.783-49.279-48.756-66.713-75.541
		c-1.907-2.934-3.751-5.898-5.624-8.82c-0.141-8.771-2.791-16.922-7.156-23.951c2.392-17.215,16.926-30.514,35.215-30.514
		L184.052,1238.994z"/>
	<g>
		<path style="fill:#E0A45C;" d="M107.997,1262.516c10.662,0,19.973,5.133,25.779,12.998c0.02,0.053,0.041,0.107,0.062,0.16
			c0.013,0,0.05,0.014,0.062,0c1.861,2.539,3.222,5.359,4.25,8.295c0.136,0.416,0.254,0.801,0.375,1.217
			c0.895,2.928,1.464,5.969,1.469,9.066c0,17.596-14.231,31.689-31.997,31.689c-17.766,0-31.903-14.094-31.903-31.689
			c0-17.598,14.137-31.689,31.903-31.689L107.997,1262.516z"/>
		<path style="fill:#E0A45C;" d="M347.975,1262.516c17.766,0,31.997,14.094,31.997,31.689s-14.231,31.689-31.997,31.689
			s-31.903-14.094-31.903-31.689c0.005-2.969,0.576-5.875,1.375-8.695c0.252-0.881,0.488-1.779,0.812-2.629
			c0.253-0.672,0.513-1.328,0.812-1.982c0.461-0.992,1.003-1.941,1.562-2.881c0.424-0.703,0.798-1.439,1.281-2.102
			C327.659,1267.807,337.121,1262.516,347.975,1262.516L347.975,1262.516z"/>
	</g>
	<path style="fill:#FABD6B;" d="M151.055,1314.877c22.744,32.801,71.368,80.277,71.368,80.277c3.104,2.965,8.02,2.965,11.124,0
		c0,0,14.317-13.459,31.153-31.133c14.133-14.836,29.777-32.357,40.902-48.061c7.351,13.951,21.388,23.748,37.934,25.283
		c-1.246,4.527-2.752,8.961-4.531,13.309c-0.842-0.48-1.609-0.992-2.5-1.393c-17.473-7.752-37.021-1.873-53.151,8.635
		c-16.131,10.504-29.67,25.938-36.122,41.9c-3.146,7.783-3.32,15.885-1.687,23.705c-11.63,1.707-23.404,1.738-35.028,0
		c1.639-7.83,1.494-15.943-1.656-23.738c-6.452-15.963-20.022-31.396-36.153-41.9c-16.131-10.506-35.772-16.387-53.245-8.635
		c-0.878,0.416-1.639,0.912-2.468,1.359c-1.77-4.336-3.256-8.762-4.499-13.277c16.961-1.6,31.361-11.854,38.559-26.367
		L151.055,1314.877z"/>
	<g>
		<path style="fill:#E0A45C;" d="M134.463,1365.631c8.976-0.623,19.433,2.852,29.497,9.408
			c13.419,8.738,25.193,22.588,29.997,34.475c4.175,10.33-2.382,27.855-11.811,37.908c-8.026,8.559-22.966,14.064-35.059,12.998
			c-12.932-1.137-28.279-9-32.716-18.598c-5.256-11.371-7.935-28.557-6.03-43.42c1.904-14.861,7.911-26.412,17.717-30.762
			c2.595-1.152,5.413-1.803,8.405-2.014L134.463,1365.631z"/>
		<path style="fill:#E0A45C;" d="M321.602,1365.631c2.992,0.176,5.811,0.863,8.405,2.014c9.806,4.348,15.813,15.898,17.717,30.762
			c1.904,14.861-0.743,32.049-5.999,43.418c-4.437,9.598-19.784,17.461-32.716,18.598c-12.094,1.072-27.064-4.438-35.09-12.996
			c-9.429-10.053-15.986-27.58-11.811-37.908c4.804-11.889,16.578-25.738,29.997-34.475c10.064-6.555,20.521-10.031,29.497-9.408
			L321.602,1365.631z"/>
	</g>
	<g>
		<path style="fill:#484666;" d="M131.745,1416.941c-0.281-0.016-0.563-0.016-0.844,0c-4.071,0.584-7.03,4.131-6.843,8.201
			c0.248,9.545,7.054,17.422,16.061,21.043c9.007,3.623,19.276,3.115,27.747-1.52c4.001-1.857,5.725-6.574,3.85-10.537
			c-1.874-3.961-6.637-5.67-10.638-3.813c-0.344,0.16-0.675,0.344-0.993,0.549c-3.834,2.096-9.606,2.455-13.936,0.721
			c-4.33-1.744-6.097-4.535-6.156-6.777c0.003-4.375-3.577-7.926-7.996-7.928c-0.085,0-0.169,0.002-0.254,0.004L131.745,1416.941z"
			/>
		<path style="fill:#484666;" d="M324.321,1416.941c-4.416-0.137-8.108,3.299-8.245,7.672c-0.003,0.084-0.004,0.166-0.004,0.25
			c-0.058,2.246-1.794,5.037-6.124,6.777c-4.33,1.742-10.102,1.377-13.936-0.703c-3.727-2.35-8.672-1.264-11.045,2.428
			c-2.373,3.691-1.276,8.588,2.451,10.939c0.252,0.158,0.514,0.303,0.783,0.434c8.471,4.629,18.772,5.137,27.779,1.52
			c9.007-3.623,15.814-11.5,16.061-21.045c0.185-4.08-2.791-7.631-6.874-8.201c-0.281-0.016-0.563-0.016-0.844,0L324.321,1416.941z"
			/>
	</g>
	<path style="fill:#E0A45C;" d="M227.986,1048.582c-1.419,0-2.777,0.207-4.187,0.24c48.042,1.393,90.336,25.475,107.521,60.348
		c17.705,35.924,6.79,76.102-28.935,103.146c-4.929,3.701-3.937,11.307,1.781,13.648h0.032c7.19,7.105,13.277,15.178,18.436,23.828
		c-1.554,0.592-3.027,1.313-4.5,2.043c0.637,1.279,1.343,2.531,1.875,3.867c3.402-2.449,7.137-4.408,11.124-5.91
		c-5.159-8.65-11.246-16.723-18.436-23.828h-0.032c-5.718-2.34-6.71-9.947-1.781-13.648c35.724-27.045,46.639-67.221,28.935-103.146
		c-17.705-35.924-61.996-60.604-111.833-60.594L227.986,1048.582z M174.709,1223.092c-3.889,0.416-3.841,0.16-11.436,2.104
		c-14.712,3.85-25.364,15.088-32.716,27.234c2.122,1.137,4.164,2.4,6.093,3.836c7.317-13.58,18.849-26.813,35.122-31.07
		c4.761-1.248,6.613-1.568,8.218-1.764c-1.468-0.16-2.907-0.336-4.437-0.336c-0.281-0.014-0.563-0.014-0.844,0V1223.092z
		 M263.545,1223.092c-17.573,0-31.092,9.332-39.809,22.623c1.552,2.369,3.006,4.836,4.25,7.428
		c7.622-15.934,21.322-28.061,39.84-29.709c-1.428-0.16-2.821-0.336-4.281-0.336V1223.092z"/>
	<g>
		<path style="fill:#BF8F56;" d="M332.632,1036.419c-1.5-0.16-2.915,0.224-4.375,0.336c12.627,1.408,23.309,9.864,27.06,22.003
			c3.538,11.451,0.022,23.486-8.468,31.689c0.783,1.184,1.694,2.285,2.437,3.498c0.291-0.291,0.605-0.559,0.937-0.801
			c10.626-8.064,15.01-21.703,11.093-34.383C357.4,1046.083,345.995,1037.215,332.632,1036.419L332.632,1036.419z M326.102,1047.684
			c-4.41,0.275-7.759,4.039-7.481,8.406c0.147,2.307,1.304,4.436,3.169,5.828c1.22,0.977,1.934,2.266,2.375,3.621
			c2.008,1.674,4.132,3.244,6.031,5.014c1.076-3.088,0.263-6.482-2.406-8.633c-3.526-2.637-4.227-7.605-1.564-11.098
			c0.878-1.15,2.056-2.043,3.408-2.58c-0.622-0.244-1.273-0.412-1.937-0.496c-0.53-0.053-1.064-0.053-1.594,0L326.102,1047.684z"/>
		<path style="fill:#BF8F56;" d="M125.464,1036.419c-0.492,0-0.92,0.256-1.406,0.304c9.884,0.72,18.75,5.807,24.217,13.986
			c-6.938,3.689-13.204,8.146-19.186,12.873c-1.234,1.697-1.967,3.652-1.625,5.695c7.857-7.088,16.602-13.404,26.31-18.568
			c-6.225-9.315-16.759-14.979-28.31-14.298L125.464,1036.419z M120.027,1047.652c-0.42,0.021-0.838,0.074-1.25,0.16
			c-1.473,0.209-2.858,0.82-4,1.766c-9.075,7.309-11.591,20.244-5.781,30.297c0.351,0.609,0.781,1.172,1.281,1.67
			c-2.129,2.57-3.973,5.314-5.843,8.047c1.05,1.088,1.902,2.322,3.125,3.279c2.492-3.943,5.222-7.709,8.218-11.326
			c-0.5-0.498-0.931-1.061-1.281-1.67c-5.81-10.055-3.294-22.988,5.781-30.297c0.723-0.604,1.548-1.074,2.437-1.393
			c-0.862-0.307-1.771-0.463-2.687-0.465L120.027,1047.652z"/>
	</g>
	<path style="fill:#E0A45C;" d="M151.055,1314.879c-0.879,1.771-2.165,3.252-3.25,4.889c23.845,32.438,67.712,75.385,67.712,75.385
		c2.414,2.297,6.015,2.863,9.03,1.424c-0.781-0.359-1.498-0.84-2.125-1.424c0,0-48.625-47.475-71.368-80.275V1314.879z
		 M305.603,1315.967c-1.061,1.504-2.549,3.115-3.687,4.641c7.829,11.34,20.161,19.289,34.716,20.641
		c-1.003,3.643-2.309,7.182-3.656,10.707c1.18,0.4,2.368,0.688,3.531,1.199c0.891,0.4,1.658,0.912,2.5,1.393
		c1.779-4.348,3.285-8.779,4.531-13.307c-16.546-1.535-30.583-11.332-37.934-25.283L305.603,1315.967z M309.384,1349.697
		c-11.41,0.752-22.853,5.533-32.934,12.102c-16.131,10.504-29.67,25.939-36.122,41.902c-3.146,7.783-3.32,15.885-1.687,23.705
		c-4.683,0.688-9.382,0.912-14.092,1.057c7.008,0.191,14.03,0,20.998-1.057c-1.632-7.82-1.458-15.924,1.687-23.705
		c6.452-15.963,19.991-31.398,36.122-41.902c9.953-6.484,21.201-11.193,32.466-12.039c-2.147-0.16-4.28-0.207-6.437,0
		L309.384,1349.697z M132.838,1349.697c-5.637-0.367-11.253,0.367-16.717,2.197c0.325,0.848,0.529,1.752,0.875,2.6
		c0.829-0.447,1.591-0.943,2.469-1.359c4.418-1.961,8.989-3.041,13.592-3.404c-0.074-0.004-0.146,0-0.219,0V1349.697z"/>
	<g>
		<path style="fill:#BF8F56;" d="M347.974,1262.516c-1.19,0-2.284,0.305-3.437,0.432c15.753,2.021,27.841,15.076,27.841,31.256
			c0,16.301-12.263,29.449-28.185,31.318c1.255,0.16,2.483,0.367,3.781,0.367c17.766,0,31.997-14.094,31.997-31.689
			s-14.231-31.689-31.997-31.689V1262.516z"/>
		<path style="fill:#BF8F56;" d="M107.996,1262.516c-1.189,0-2.284,0.305-3.437,0.416c15.753,2.02,27.841,15.076,27.841,31.258
			c0,16.299-12.263,29.447-28.185,31.318c1.255,0.16,2.483,0.352,3.781,0.352c17.766,0,31.997-14.094,31.997-31.689
			s-14.231-31.689-31.997-31.689L107.996,1262.516z"/>
		<path style="fill:#BF8F56;" d="M321.602,1365.631c-2.093-0.16-4.269,0-6.499,0.24c2.564,0.271,5.054,0.768,7.312,1.766
			c9.806,4.348,15.813,15.898,17.717,30.76c1.904,14.863-0.743,32.049-5.999,43.42c-4.301,9.305-18.83,16.854-31.497,18.352
			c2.152,0.176,4.339,0.432,6.374,0.24c12.932-1.137,28.279-9,32.716-18.598c5.257-11.369,7.904-28.557,5.999-43.42
			c-1.904-14.861-7.911-26.412-17.717-30.76c-2.595-1.152-5.413-1.832-8.405-2.014V1365.631z"/>
		<path style="fill:#BF8F56;" d="M134.463,1365.631c-0.378,0-0.69,0.207-1.062,0.24c7.378,0.912,15.35,4.096,23.123,9.16
			c13.419,8.738,25.193,22.588,29.997,34.475c4.175,10.33-2.382,27.857-11.811,37.91c-6.702,7.146-18.15,11.908-28.81,12.75
			c0.391,0,0.801,0.207,1.187,0.24c12.094,1.072,27.033-4.438,35.059-12.996c9.429-10.053,15.986-27.58,11.811-37.91
			c-4.804-11.887-16.578-25.736-29.997-34.475c-10.064-6.557-20.521-10.031-29.497-9.408L134.463,1365.631z"/>
	</g>
	<path style="fill:#BD5858;" d="M184.052,1238.998c-1.137,0-2.206,0.176-3.312,0.271c18.729,1.455,32.122,13.146,32.122,31.412
		h7.218c0-19.535-15.229-31.689-36.028-31.689L184.052,1238.998z M272.044,1238.998c-1.359,0-2.628,0.176-3.937,0.271
		c16.687,1.504,29.646,14.063,31.903,30.203c-4.05,6.539-6.49,14.072-6.937,22.158c-0.074,0.816-0.278,1.613-0.281,2.445
		c0,0,0,0,0,0.16c-0.002,0.305-0.005,0.623,0,0.928c-0.714,1.313-1.429,2.811-2,3.744c-9.314,15.223-28.466,36.805-44.996,54.156
		c-11.397,11.965-16.741,16.992-21.029,21.105c0.663,0.656,3.149,3.27,3.562,3.684c3.987-3.824,11.303-10.74,24.685-24.789
		c16.529-17.352,35.681-38.934,44.996-54.156c0.571-0.928,1.286-2.428,2-3.744c-0.005-0.305-0.002-0.623,0-0.928c0,0,0-0.16,0-0.16
		c0.004-0.832,0.208-1.623,0.281-2.445c0.447-8.086,2.887-15.619,6.937-22.158c-2.405-17.199-16.905-30.482-35.184-30.482V1238.998z
		"/>
	<g>
		<path style="fill:#E1E1E6;" d="M284.074,1104.008c-0.726,0-1.367,0.225-2.031,0.4c3.424,0.896,5.874,3.811,5.874,7.553
			c0,3.74-2.45,6.658-5.874,7.551c0.664,0.176,1.305,0.4,2.031,0.4c4.513,0,7.906-3.484,7.906-7.951
			C291.98,1107.492,288.587,1104.008,284.074,1104.008z"/>
		<path style="fill:#E1E1E6;" d="M180.146,1104.008c-0.726,0-1.367,0.24-2.031,0.416c3.424,0.896,5.874,3.809,5.874,7.551
			c0,3.744-2.45,6.658-5.874,7.553c0.664,0.176,1.305,0.416,2.031,0.416c4.513,0,7.906-3.486,7.906-7.953s-3.392-7.953-7.906-7.953
			V1104.008z"/>
	</g>
</g>
<g>
</g>
<g>
</g>
<g>
</g>
<g>
</g>
<g>
</g>
<g>
</g>
<g>
</g>
<g>
</g>
<g>
</g>
<g>
</g>
<g>
</g>
<g>
</g>
<g>
</g>
<g>
</g>
<g>
</g>
</svg>
