<?xml version="1.0" encoding="iso-8859-1"?>
<!-- Generator: Adobe Illustrator 19.0.0, SVG Export Plug-In . SVG Version: 6.00 Build 0)  -->
<svg version="1.1" id="Layer_1" xmlns="http://www.w3.org/2000/svg" xmlns:xlink="http://www.w3.org/1999/xlink" x="0px" y="0px"
	 viewBox="0 0 512.001 512.001" style="enable-background:new 0 0 512.001 512.001;" xml:space="preserve">
<path style="fill:#D5E2E8;" d="M81.353,390.509l40.138,40.138l97.152-34.208l261.808-261.809c28.465-28.465,28.465-74.616,0-103.081
	l0,0c-28.465-28.465-74.616-28.465-103.081,0L115.561,293.357L81.353,390.509z"/>
<g>
	
		<rect x="37.471" y="395.835" transform="matrix(-0.7071 -0.7071 0.7071 -0.7071 -203.057 808.1849)" style="fill:#3CC4DC;" width="56.763" height="100.624"/>
	
		<rect x="351.753" y="51.229" transform="matrix(-0.7071 -0.7071 0.7071 -0.7071 547.9033 497.1213)" style="fill:#3CC4DC;" width="50.312" height="167.714"/>
</g>
<path d="M487.664,24.336C471.971,8.643,451.105,0,428.912,0c-22.194,0-43.059,8.643-58.753,24.336L108.35,286.145
	c-1.079,1.079-1.902,2.386-2.408,3.825l-33.439,94.966L2.988,454.451c-3.983,3.983-3.983,10.441,0,14.425l40.138,40.138
	c1.992,1.992,4.602,2.987,7.212,2.987s5.221-0.995,7.212-2.987l69.516-69.516l94.966-33.439c1.439-0.507,2.746-1.329,3.825-2.408
	l261.808-261.808C503.358,126.148,512,105.283,512,83.089C512,60.895,503.358,40.03,487.664,24.336z M50.338,487.377l-25.714-25.714
	l56.73-56.73l25.714,25.714L50.338,487.377z M473.24,127.418l-260.17,260.17l-88.909,31.305l-31.055-31.055l31.305-88.908
	l260.17-260.17c11.841-11.84,27.584-18.362,44.329-18.362s32.488,6.521,44.329,18.362c11.84,11.841,18.362,27.584,18.362,44.329
	S485.081,115.576,473.24,127.418z"/>
<path d="M425.633,50.79c-1.912-1.912-4.507-2.987-7.212-2.987s-5.3,1.075-7.212,2.987L292.62,169.38
	c-3.983,3.983-3.983,10.441,0,14.425l35.577,35.577c1.992,1.992,4.602,2.987,7.212,2.987c2.61,0,5.221-0.996,7.212-2.987
	l118.59-118.59c1.912-1.912,2.987-4.507,2.987-7.212c0-2.705-1.075-5.299-2.987-7.212L425.633,50.79z M335.408,197.745
	l-21.153-21.153L418.421,72.427l21.153,21.153L335.408,197.745z"/>
<path d="M214.624,246.463l-43.787,43.787c-3.983,3.983-3.983,10.441,0,14.425c1.992,1.991,4.602,2.987,7.212,2.987
	s5.221-0.996,7.212-2.987l43.787-43.787c3.983-3.983,3.983-10.441,0-14.425C225.065,242.481,218.607,242.481,214.624,246.463z"/>
<path d="M247.464,213.623l-4.561,4.561c-3.983,3.983-3.983,10.441,0,14.425c1.992,1.992,4.602,2.987,7.212,2.987
	s5.221-0.995,7.212-2.987l4.561-4.561c3.983-3.983,3.983-10.441,0-14.425C257.906,209.64,251.447,209.64,247.464,213.623z"/>
<g>
</g>
<g>
</g>
<g>
</g>
<g>
</g>
<g>
</g>
<g>
</g>
<g>
</g>
<g>
</g>
<g>
</g>
<g>
</g>
<g>
</g>
<g>
</g>
<g>
</g>
<g>
</g>
<g>
</g>
</svg>
