<?xml version="1.0" ?><svg width="64px" height="64px" viewBox="0 0 64 64" id="filled" xmlns="http://www.w3.org/2000/svg"><defs><style>.cls-1{fill:#fff;}.cls-1,.cls-2,.cls-3,.cls-4{stroke:#000;stroke-linecap:round;stroke-linejoin:round;stroke-width:2px;}.cls-2{fill:#bdc3c7;}.cls-3{fill:#004fe3;}.cls-4{fill:none;}</style></defs><title/><polygon class="cls-1" points="14 3 50 3 43 51 21 51 14 3"/><path class="cls-2" d="M25,51H39a4,4,0,0,1,4,4v6a0,0,0,0,1,0,0H21a0,0,0,0,1,0,0V55A4,4,0,0,1,25,51Z" transform="translate(64 112) rotate(180)"/><polygon class="cls-3" points="24 37.5 29.5 37.5 29.5 43 34.5 43 34.5 37.5 40 37.5 40 32.5 34.5 32.5 34.5 27 29.5 27 29.5 32.5 24 32.5 24 37.5"/><path class="cls-4" d="M20,18.9375v-7a3,3,0,0,1,3-3h0a3,3,0,0,1,3,3v7"/><line class="cls-4" x1="20" x2="26" y1="14.9375" y2="14.9375"/><polyline class="cls-4" points="35 19 30 19 30 8.938"/><path class="cls-4" d="M44,15.9375a3,3,0,0,1-3,3h0a3,3,0,0,1-3-3v-4a3,3,0,0,1,3-3h0a3,3,0,0,1,3,3"/></svg>