<?xml version="1.0" encoding="iso-8859-1"?>
<!-- Generator: Adobe Illustrator 19.0.0, SVG Export Plug-In . SVG Version: 6.00 Build 0)  -->
<svg version="1.1" id="Layer_1" xmlns="http://www.w3.org/2000/svg" xmlns:xlink="http://www.w3.org/1999/xlink" x="0px" y="0px"
	 viewBox="0 0 512 512" style="enable-background:new 0 0 512 512;" xml:space="preserve">
<path style="fill:#3CC4DC;" d="M335.031,501.801H176.968c-75.756,0-137.167-61.411-137.167-137.167V148.075
	c0-53.959,43.742-97.702,97.702-97.702h236.995c53.959,0,97.702,43.742,97.702,97.702v216.559
	C472.198,440.389,410.787,501.801,335.031,501.801z"/>
<circle style="fill:#D5E2E8;" cx="255.999" cy="102.176" r="91.976"/>
<path d="M374.497,40.175h-37.342C318.466,15.77,289.042,0,255.999,0s-62.466,15.77-81.155,40.175h-37.341
	c-59.497,0-107.901,48.404-107.901,107.9v216.559C29.601,445.892,95.71,512,176.968,512h158.064
	c81.258,0,147.366-66.108,147.366-147.366V148.075C482.398,88.579,433.994,40.175,374.497,40.175z M255.999,20.398
	c45.093,0,81.778,36.686,81.778,81.778s-36.685,81.777-81.778,81.777s-81.778-36.686-81.778-81.778S210.907,20.398,255.999,20.398z
	 M462,364.634c0,70.011-56.958,126.968-126.968,126.968H176.968C106.958,491.602,50,434.644,50,364.634V148.075
	c0-48.249,39.254-87.502,87.503-87.502h25.182c-5.691,12.715-8.861,26.795-8.861,41.604c0,56.34,45.835,102.177,102.177,102.177
	c56.341,0,102.177-45.835,102.177-102.177c0-14.808-3.17-28.888-8.861-41.604h25.182c48.249,0,87.503,39.253,87.503,87.502v216.559
	H462z"/>
<path d="M255.999,112.191c5.632,0,10.199-4.567,10.199-10.199V43.857c0-5.632-4.567-10.199-10.199-10.199S245.8,38.225,245.8,43.857
	v58.135C245.8,107.624,250.367,112.191,255.999,112.191z"/>
<path d="M72.414,182.566c-5.632,0-10.199,4.567-10.199,10.199v149.928c0,5.632,4.567,10.199,10.199,10.199
	s10.199-4.567,10.199-10.199V192.765C82.613,187.133,78.046,182.566,72.414,182.566z"/>
<path d="M72.414,139.729c-5.632,0-10.199,4.567-10.199,10.199v10.199c0,5.632,4.567,10.199,10.199,10.199
	s10.199-4.567,10.199-10.199v-10.199C82.613,144.296,78.046,139.729,72.414,139.729z"/>
<g>
</g>
<g>
</g>
<g>
</g>
<g>
</g>
<g>
</g>
<g>
</g>
<g>
</g>
<g>
</g>
<g>
</g>
<g>
</g>
<g>
</g>
<g>
</g>
<g>
</g>
<g>
</g>
<g>
</g>
</svg>
